Coordinates
version=1
nRows=9
nColumns=36
inDegrees=yes

Units are S.I. units (second, meters, Newtons, ...)
If the header above contains a line with 'inDegrees', this indicates whether rotational values are in degrees (yes) or radians (no).

endheader
time	pelvis_tilt	pelvis_list	pelvis_rotation	pelvis_tx	pelvis_ty	pelvis_tz	hip_flexion_r	hip_adduction_r	hip_rotation_r	knee_angle_r	knee_angle_r_beta	ankle_angle_r	subtalar_angle_r	mtp_angle_r	hip_flexion_l	hip_adduction_l	hip_rotation_l	knee_angle_l	knee_angle_l_beta	ankle_angle_l	subtalar_angle_l	mtp_angle_l	lumbar_extension	lumbar_bending	lumbar_rotation	arm_flex_r	arm_add_r	arm_rot_r	elbow_flex_r	pro_sup_r	arm_flex_l	arm_add_l	arm_rot_l	elbow_flex_l	pro_sup_l
      0.69000000	      7.13389483	      1.25790255	     -5.39066306	      0.72183880	      1.04279322	     -0.19228290	    -11.12341094	     -3.18884420	     -2.94634055	     45.30086614	      0.79064927	     -5.10357492	      7.50408143	     -7.14661878	      6.72897684	      6.04506737	      2.39597326	      2.98005359	      0.05201175	     -8.81075349	     -5.03800617	     -7.14661878	     -8.85022170	     -2.93112253	      1.65050710	      6.05007501	     -9.85224117	      7.59081584	     45.96251545	    104.69760154	    -17.09365797	     -5.77919830	      7.42813773	     31.87837750	     92.96279337
      0.70000000	      7.01934228	      1.59088502	     -5.39456960	      0.73349933	      1.04418958	     -0.19293182	     -8.83525994	     -3.77086281	     -2.93510339	     49.19308999	      0.85858139	     -7.86975676	      5.64079127	     -7.15421880	      6.17602204	      6.51148045	      2.48041326	      3.03937983	      0.05304719	     -8.27769655	     -5.00737978	     -7.15421880	     -8.77447014	     -3.34382274	      1.27031431	      5.72646133	     -9.51777549	      7.33154145	     45.45205546	    104.68287944	    -16.39139606	     -6.20120689	      7.48757474	     32.40026717	     93.03528211
      0.71000000	      7.00632848	      1.88389829	     -5.45106249	      0.74498074	      1.04572267	     -0.19349636	     -6.61876452	     -4.28253786	     -2.80217878	     52.94520591	      0.92406817	    -10.43075660	      3.92527447	     -7.16220521	      5.36970770	      6.93512415	      2.50439964	      2.83481339	      0.04947683	     -7.54066840	     -4.78138881	     -7.16220521	     -8.82097501	     -3.71841468	      0.92194573	      5.41313227	     -9.23830238	      7.11022204	     45.01561666	    104.68484734	    -15.62106638	     -6.64393820	      7.59346234	     32.85113143	     93.10593871
      0.72000000	      6.95226801	      2.09571868	     -5.51978962	      0.75629505	      1.04719996	     -0.19395309	     -4.35719576	     -4.61699147	     -2.58910742	     56.47913451	      0.98574686	    -12.81874106	      2.04768046	     -7.17088266	      4.54936079	      7.25234496	      2.43270768	      2.52555770	      0.04407930	     -6.72758605	     -4.37847259	     -7.17088266	     -8.83748296	     -3.98734177	      0.59031290	      5.09678158	     -8.97829215	      6.87280908	     44.58039371	    104.70782377	    -14.80503956	     -7.11192363	      7.76173700	     33.29472218	     93.19082601
      0.73000000	      6.90112179	      2.29527986	     -5.59246091	      0.76756219	      1.04865439	     -0.19442514	     -2.12694164	     -4.89476212	     -2.33518653	     59.78777164	      1.04349347	    -14.57606628	      0.46544293	     -7.17607753	      3.63866203	      7.55910267	      2.49132659	      2.04820533	      0.03574793	     -5.92887889	     -3.97374532	     -7.17607753	     -8.83964408	     -4.24072520	      0.31254808	      4.73097961	     -8.79036982	      6.72090987	     44.12137886	    104.66886402	    -13.97555682	     -7.56996369	      7.87619098	     33.76827462	     93.24626449
      0.74000000	      6.78956110	      2.25898300	     -5.56961388	      0.77863896	      1.05013952	     -0.19483030	      0.04635984	     -4.74176911	     -2.10856444	     62.63088847	      1.09311522	    -16.61114670	     -2.16297664	     -7.18813940	      2.90095921	      7.57547542	      2.20455520	      1.81099106	      0.03160776	     -4.96477298	     -3.07683439	     -7.18813940	     -8.80966482	     -4.18826164	     -0.07542447	      4.38532172	     -8.56092420	      6.35661477	     43.69062530	    104.78362170	    -13.06937529	     -8.08126704	      8.27252488	     34.13325753	     93.39926952
      0.75000000	      6.62406258	      2.24508417	     -5.49901294	      0.78975441	      1.05146300	     -0.19530989	      2.19554774	     -4.59290965	     -1.93767268	     65.22167753	      1.13833302	    -17.36159144	     -4.12492050	     -7.19568126	      2.19594759	      7.62132447	      2.18184017	      1.52246932	      0.02657210	     -4.15855403	     -2.43809317	     -7.19568126	     -8.69142885	     -4.15310765	     -0.44097380	      3.97385597	     -8.41653293	      6.12990060	     43.22899167	    104.81048052	    -12.20749849	     -8.57759129	      8.51715105	     34.63336310	     93.51096509
      0.76000000	      6.52841076	      2.15160096	     -5.34529658	      0.80077442	      1.05289569	     -0.19584620	      4.12902813	     -4.30679183	     -1.85628471	     67.36219880	      1.17569216	    -17.69504018	     -6.21115696	     -7.20459315	      1.44835344	      7.58076182	      2.17234189	      1.30585428	      0.02279146	     -3.24979581	     -1.68356946	     -7.20459315	     -8.68805198	     -4.02019592	     -0.89431992	      3.57333306	     -8.30150283	      5.86793847	     42.81378261	    104.88025661	    -11.26202098	     -9.10553113	      8.83910846	     35.05268713	     93.65257469
      0.77000000	      6.43425338	      2.01711146	     -5.09805451	      0.81173264	      1.05429916	     -0.19647671	      5.93525954	     -3.96816713	     -1.89714056	     69.14740287	      1.20684985	    -17.14606758	     -8.05231283	     -7.21322545	      0.74539881	      7.49708094	      2.27621530	      1.17047210	      0.02042859	     -2.36204805	     -1.00114089	     -7.21322545	     -8.69081045	     -3.82966165	     -1.38591695	      3.12138564	     -8.23430884	      5.63768863	     42.43378885	    104.94216067	    -10.27434280	     -9.62786228	      9.14558661	     35.49208840	     93.79787383
